<?xml version="1.0" encoding="utf-8"?>
<!-- Generator: Adobe Illustrator 22.0.1, SVG Export Plug-In . SVG Version: 6.00 Build 0)  -->
<svg version="1.1" id="Capa_1" xmlns="http://www.w3.org/2000/svg" xmlns:xlink="http://www.w3.org/1999/xlink" x="0px" y="0px"
	 viewBox="0 0 1200 1200" style="enable-background:new 0 0 1200 1200;" xml:space="preserve">
<style type="text/css">
	.st0{fill:#FFFFFF;}
</style>
<path d="M417.5,39.8c5.4,0,10.8,0,16.1,0c24.6,12.3,31.5,24.5,28,48.5c-6.3,42.5-12.5,85-18.7,127.5c-0.4,2.4,0,5,0,7.8
	c3.3-0.2,5.3-0.2,7.4-0.4c41.2-4.7,82.4-9.4,123.7-14c47.2-5.3,89.7,6.4,125.7,37.4c18.9,16.3,35.8,34.9,53.5,52.6
	c31.4,31.3,62.8,62.8,94.2,94.2c31.2,31.2,62.3,62.3,93.5,93.5c34.6,34.5,69.3,68.9,103.6,103.6c16.1,16.3,32.9,32.1,46.9,50.1
	c29,37.2,25.4,102-6.9,136.3c-25.7,27.3-52.7,53.5-79.3,80.1c-28,28-56.1,55.9-84.1,83.9c-28,28-56,56-84,84
	c-28.2,28.2-56.1,56.7-84.7,84.6c-12.9,12.6-25.8,26.2-41,35.4c-13.9,8.4-30.9,11.6-46.6,17.1c-7.8,0-15.5,0-23.3,0
	c-1.7-0.5-3.3-1.3-5-1.6c-23.2-4-44.2-13.1-61-29.8c-59.3-58.9-118.3-118-177.3-177.1C333.5,888.7,268.6,823.9,204,759
	c-23.2-23.3-37.1-51.4-43.6-83.6c-5.4-26.7-1.2-53,1.6-79.4c7.8-72.7,16.3-145.4,24.3-218.1c3.1-28.2,5.6-56.5,23-80.7
	c19.7-27.3,44-48.2,77.9-54.5c23.1-4.3,46.7-6.4,70.1-9c6-0.7,8-2.9,8.9-8.6c6.6-47,14.3-93.9,20.1-141
	C388.8,62.8,396.5,47.1,417.5,39.8z M359.1,270.9c-21.2,2.4-40.6,3.3-59.5,7c-37.4,7.4-63.2,29.9-70.5,67.4
	c-7.2,37.4-9.9,75.7-14.2,113.7c-6.6,57.8-13.3,115.7-19.2,173.6c-3.8,37,6.9,70.2,32.5,97c32.8,34.3,66.9,67.2,100.4,100.8
	c37.7,37.8,75.3,75.6,113,113.4c35.2,35.2,70.4,70.5,105.7,105.6c19.9,19.7,39.3,40,60.3,58.5c26,23,69.4,21.9,94.5-2
	c30-28.6,59.1-58.1,88.5-87.4c44.4-44.2,88.6-88.6,132.9-132.9c43-43,86.5-85.7,128.9-129.3c20.7-21.3,26.7-47.1,17.6-76.1
	c-6.5-20.8-22.7-33.9-37.1-48.5C998.6,597.2,964,563,929.6,528.6c-37.7-37.8-75.4-75.6-113.1-113.3c-41.5-41.6-83.1-83-124.6-124.6
	c-13.5-13.6-27.5-26.2-45.4-34.1c-23.4-10.4-47.5-12.5-72.7-9.5c-43.3,5.2-86.6,9.6-129.9,14.6c-2.7,0.3-7,2.4-7.4,4.4
	c-2.4,10.9-3.8,22.1-5.8,34.4c6.7-0.5,12-0.8,17.2-1.3c45.4-5,90.8-10.2,136.2-15c28.7-3,53.5,5.7,74,26.2
	c33.2,33.1,66.3,66.3,99.4,99.4c88.6,88.6,177.3,177.2,265.9,265.9c17.5,17.5,17.2,39.6-0.3,57c-113.3,113.3-226.5,226.7-339.8,340
	c-18.4,18.5-40.6,18.6-59.1,0.2c-56-55.8-111.9-111.8-167.8-167.7C391.2,839.9,326,774.8,260.9,709.6c-21.3-21.4-30.7-47-27.1-77.3
	c4.7-40.3,9.1-80.7,13.6-121c5.8-51.9,11.4-103.9,17.6-155.7c2.6-21.2,18.6-37.1,39.7-40.4c13.8-2.2,27.9-2.9,41.8-4.9
	c2.9-0.4,7.3-3,7.7-5.2C356.4,294.3,357.4,283.3,359.1,270.9z M647.5,879.6c0.9,0.6,1.8,1.1,2.7,1.7c9.6-10.1,18.9-20.5,29-30.1
	c5.5-5.2,6.5-10.2,5-17.4c-10.7-49.3-20.9-98.6-31.3-148c-13.2-62.5-26.4-124.9-39.5-187.4c-1.5-7.1-3.1-14.2-5.1-23.8
	c-13.1,13.4-24.4,24.8-35.4,36.5c-1.6,1.7-2.2,5.4-1.7,7.8c5.3,26.3,10.9,52.6,16.5,78.8c12,56.6,24.1,113.2,36.1,169.8
	C631.7,804.9,639.6,842.2,647.5,879.6z M499.1,607.8c-21.2-0.1-37.4,8.6-51.3,22.2c-20.2,19.7-30.9,43-24.9,71.8
	c3.5,17.1,12.9,31.1,24.4,44c30.3,34.2,72.2,38.7,106.4,9.8c22-18.6,33.7-42.4,28.7-72.1c-3.5-20.6-15-37-29.7-50.9
	C537.4,618.3,520,607.6,499.1,607.8z M673.7,660.3c-0.4,19.2,6.1,36,20.7,53.9c31,37.8,76.4,47,113.3,14.5
	c22.8-20.1,33.1-51.3,24.1-80c-7.9-25.1-24.8-43-46.6-56.6c-15.3-9.6-31.9-13-49.7-8.8C706.1,590.2,672.2,626,673.7,660.3z
	 M421.2,368.3c-0.7,3.7-1.4,7.1-2,10.5c-3,18.6-5.4,37.2-9,55.6c-3.9,20.4-26,30.4-41.2,27.8c-20-3.4-33.3-20.9-31.2-41.4
	c1.4-13.3,3.7-26.6,5.5-39.9c1.1-7.8,2.2-15.6,3.4-23.9c-26.4,6.4-48.9,40.9-47.1,70.3c2.3,38.6,30.4,68.6,67.8,72.4
	c34.8,3.5,69.3-19.7,78.8-52C455.7,415.1,442.4,380.8,421.2,368.3z"/>
<path class="st0" d="M359.1,270.9c-1.6,12.4-2.7,23.4-4.8,34.1c-0.4,2.2-4.9,4.8-7.7,5.2c-13.9,2-27.9,2.8-41.8,4.9
	c-21.2,3.3-37.2,19.2-39.7,40.4c-6.2,51.9-11.8,103.8-17.6,155.7c-4.5,40.3-8.9,80.7-13.6,121c-3.6,30.3,5.8,55.9,27.1,77.3
	c65.1,65.2,130.4,130.4,195.5,195.6c55.9,55.9,111.8,111.8,167.8,167.7c18.5,18.4,40.7,18.2,59.1-0.2
	c113.3-113.3,226.5-226.7,339.8-340c17.5-17.5,17.8-39.5,0.3-57c-88.6-88.7-177.3-177.3-265.9-265.9c-33.1-33.1-66.2-66.3-99.4-99.4
	c-20.5-20.5-45.3-29.2-74-26.2c-45.4,4.8-90.8,10-136.2,15c-5.2,0.6-10.5,0.8-17.2,1.3c2-12.3,3.4-23.5,5.8-34.4
	c0.4-2,4.7-4.1,7.4-4.4c43.3-5,86.7-9.5,129.9-14.6c25.2-3,49.2-0.8,72.7,9.5c17.9,7.9,31.9,20.5,45.4,34.1
	c41.5,41.6,83.1,83.1,124.6,124.6c37.7,37.8,75.4,75.6,113.1,113.3c34.4,34.4,68.9,68.6,103.1,103.1c14.4,14.5,30.5,27.7,37.1,48.5
	c9.1,29,3.1,54.8-17.6,76.1c-42.4,43.6-85.9,86.3-128.9,129.3c-44.3,44.3-88.5,88.7-132.9,132.9c-29.4,29.3-58.5,58.8-88.5,87.4
	c-25,23.9-68.5,25-94.5,2c-21-18.5-40.4-38.8-60.3-58.5c-35.3-35.1-70.5-70.3-105.7-105.6c-37.7-37.8-75.3-75.6-113-113.4
	c-33.5-33.6-67.6-66.5-100.4-100.8c-25.7-26.9-36.3-60-32.5-97c5.9-57.9,12.6-115.7,19.2-173.6c4.3-37.9,7-76.2,14.2-113.7
	c7.2-37.5,33.1-60,70.5-67.4C318.4,274.1,337.9,273.2,359.1,270.9z"/>
<path class="st0" d="M647.5,879.6c-7.9-37.3-15.8-74.6-23.7-111.9c-12-56.6-24.1-113.2-36.1-169.8c-5.6-26.3-11.2-52.5-16.5-78.8
	c-0.5-2.4,0.1-6.1,1.7-7.8c10.9-11.7,22.3-23.1,35.4-36.5c2.1,9.6,3.6,16.7,5.1,23.8c13.2,62.5,26.4,124.9,39.5,187.4
	c10.4,49.3,20.6,98.7,31.3,148c1.5,7.2,0.6,12.1-5,17.4c-10.1,9.6-19.4,20-29,30.1C649.3,880.7,648.4,880.1,647.5,879.6z"/>
<path class="st0" d="M499.1,607.8c20.9-0.2,38.3,10.5,53.5,24.9c14.7,13.9,26.2,30.3,29.7,50.9c5,29.7-6.7,53.5-28.7,72.1
	c-34.1,28.9-76.1,24.4-106.4-9.8c-11.5-13-20.9-26.9-24.4-44c-5.9-28.8,4.8-52.1,24.9-71.8C461.7,616.4,477.9,607.7,499.1,607.8z
	 M541.6,699.2c-0.5-1.7-1.4-6.1-3.1-10.2c-5.7-13.4-16.4-22.5-27.8-30.6c-15.1-10.7-27.3-9.6-39.1,2.7c-10,10.4-11.1,26.9-1,39.2
	c7.7,9.3,16.7,17.8,26.2,25.2c8.4,6.6,19,7.8,28.6,2.2C535,722.2,541.8,714,541.6,699.2z"/>
<path class="st0" d="M673.7,660.3c-1.5-34.3,32.5-70.1,61.8-77.1c17.8-4.3,34.4-0.8,49.7,8.8c21.8,13.7,38.7,31.5,46.6,56.6
	c9.1,28.7-1.2,59.8-24.1,80c-36.9,32.6-82.3,23.4-113.3-14.5C679.7,696.3,673.3,679.5,673.7,660.3z M794,675
	c-0.3-1.7-0.5-4.5-1.4-6.9c-6.6-17.6-18.7-30.3-35.4-38.3c-12.6-6-25.2-3.5-33.1,4.9c-10.5,11.2-12.6,22.1-3.8,35.7
	c6.6,10.3,15.3,19.7,24.8,27.5c9.2,7.6,20.7,10.7,32.5,3.9C787.5,696,793.7,687.9,794,675z"/>
<path class="st0" d="M421.2,368.3c21.3,12.5,34.6,46.8,25,79.4c-9.4,32.3-44,55.5-78.8,52c-37.5-3.8-65.6-33.8-67.8-72.4
	c-1.7-29.4,20.7-64,47.1-70.3c-1.2,8.4-2.3,16.1-3.4,23.9c-1.9,13.3-4.2,26.5-5.5,39.9c-2.1,20.6,11.3,38,31.2,41.4
	c15.2,2.6,37.3-7.4,41.2-27.8c3.6-18.4,6-37.1,9-55.6C419.7,375.4,420.5,372,421.2,368.3z"/>
<path d="M541.6,699.2c0.2,14.8-6.6,23-16.2,28.6c-9.6,5.5-20.2,4.4-28.6-2.2c-9.5-7.5-18.5-15.9-26.2-25.2c-10.2-12.3-9-28.9,1-39.2
	c11.8-12.3,24-13.4,39.1-2.7c11.4,8.1,22.1,17.2,27.8,30.6C540.2,693.1,541.1,697.5,541.6,699.2z"/>
<path d="M794,675c-0.3,12.9-6.4,21-16.4,26.8c-11.8,6.8-23.3,3.7-32.5-3.9c-9.4-7.8-18.2-17.2-24.8-27.5
	c-8.8-13.7-6.7-24.5,3.8-35.7c7.8-8.4,20.5-10.9,33.1-4.9c16.7,8,28.8,20.7,35.4,38.3C793.5,670.5,793.6,673.3,794,675z"/>
</svg>
